<?xml version="1.0" encoding="UTF-8"?>
<svg id="_Слой_1" data-name="Слой_1" xmlns="http://www.w3.org/2000/svg" version="1.1" viewBox="0 0 111.85 27">
  <!-- Generator: Adobe Illustrator 29.8.2, SVG Export Plug-In . SVG Version: 2.1.1 Build 3)  -->
  <defs>
    <style>
      .st0 {
        fill: #461e71;
      }

      .st0, .st1, .st2, .st3, .st4, .st5, .st6 {
        fill-rule: evenodd;
      }

      .st1, .st7 {
        fill: #1b0933;
      }

      .st8, .st3 {
        fill: #fff;
      }

      .st2 {
        fill: #f8ac21;
      }

      .st9, .st5 {
        fill: #663994;
      }

      .st4 {
        fill: #e54708;
      }

      .st6 {
        fill: #ed7f15;
      }

      .st10 {
        fill: #d1d1d1;
      }
    </style>
  </defs>
  <g>
    <path class="st10" d="M2.58,19.08v-7.86c0-1.21.3-2.15.89-2.8.59-.66,1.46-.98,2.62-.98s2.04.33,2.67.98.94,1.59.94,2.8v1.47h-2.34v-1.62c0-.99-.4-1.49-1.21-1.49s-1.22.5-1.22,1.49v8.15c0,.98.41,1.47,1.22,1.47s1.21-.49,1.21-1.47v-2.16h2.34v2.01c0,1.21-.31,2.15-.94,2.8-.63.66-1.52.98-2.67.98s-2.02-.33-2.62-.98-.89-1.59-.89-2.8h0Z"/>
    <path class="st10" d="M10.94,22.7l2.38-15.1h3.62l2.38,15.1h-2.34l-.41-2.74h-2.87l-.41,2.74h-2.34ZM13.99,17.91h2.26l-1.13-7.6-1.12,7.6h0Z"/>
    <path class="st10" d="M20.41,19.07v-.93h2.41v1.07c0,.98.37,1.47,1.12,1.47s1.12-.49,1.12-1.47c0-.42-.08-.82-.25-1.19s-.38-.71-.65-1c-.26-.3-.55-.59-.87-.9-.32-.3-.65-.61-.98-.94s-.64-.67-.91-1.04c-.27-.37-.5-.8-.67-1.31s-.26-1.05-.26-1.63c0-1.21.32-2.15.96-2.8.64-.66,1.5-.98,2.58-.98s1.91.33,2.5.98.88,1.59.88,2.8v.48h-2.21v-.63c0-.99-.39-1.49-1.18-1.49-.39,0-.68.12-.88.35-.19.23-.29.61-.29,1.13,0,.42.09.82.26,1.19s.39.71.66,1,.57.59.89.9c.33.3.65.61.98.94s.62.67.89,1.04c.27.36.48.8.66,1.31.17.51.26,1.05.26,1.63,0,1.21-.3,2.15-.9,2.8-.59.66-1.44.98-2.53.98s-1.96-.33-2.6-.98-.97-1.59-.97-2.8h.01Z"/>
    <path class="st10" d="M29.29,22.7V7.6h6.39v2.16h-4.05v4.21h3.22v2.14h-3.22v4.42h4.05v2.16h-6.39Z"/>
    <path class="st10" d="M60.52,22.66V7.56h3.54c1.2,0,2.08.29,2.64.85s.84,1.45.84,2.62v.54c0,1.54-.51,2.56-1.52,3.04,1.17.45,1.75,1.53,1.75,3.23v1.23c0,1.17-.3,2.05-.9,2.66-.61.61-1.49.91-2.65.91h-3.69ZM62.86,13.72h.92c.47,0,.82-.12,1.05-.36.24-.24.36-.65.36-1.23v-.84c0-.54-.09-.93-.29-1.18s-.49-.37-.91-.37h-1.14v3.99h0ZM62.86,20.51h1.35c.41,0,.72-.11.91-.34.2-.23.3-.61.3-1.15v-1.32c0-.69-.12-1.17-.35-1.43-.23-.27-.62-.4-1.16-.4h-1.05v4.63h0Z"/>
    <path class="st10" d="M69.11,22.66l2.38-15.1h3.62l2.38,15.09h-2.34l-.41-2.74h-2.87l-.41,2.74h-2.34,0ZM72.16,17.87h2.26l-1.13-7.6-1.12,7.6h0Z"/>
    <path class="st10" d="M77.45,9.72v-2.16h7.26v2.16h-2.46v12.94h-2.34v-12.94h-2.46,0Z"/>
    <path class="st10" d="M85.59,9.72v-2.16h7.26v2.16h-2.46v12.94h-2.34v-12.94h-2.46,0Z"/>
    <path class="st10" d="M94.42,22.66V7.56h2.34v12.94h3.86v2.16h-6.21Z"/>
    <path class="st10" d="M102.2,22.66V7.56h6.39v2.16h-4.05v4.21h3.22v2.15h-3.22v4.42h4.05v2.16h-6.39,0Z"/>
  </g>
  <g>
    <g>
      <path class="st6" d="M50.07,24.52c-1.48,1.36-4.96.69-5.45.02-5.33,2.6-9.63-11.33-4.74-13.32.98-1.83,3.84-3,6.57-1.95,2.21-1.89,5.61-1.12,6.3-.53,6.42-2.81,8.04,15.27,2.55,13.59-.38,1.91-3.91,2.93-5.23,2.19h0Z"/>
      <path class="st2" d="M37.92,13.91c.23-1.05.71-1.91,1.47-2.42,2.36-1.38,6.24.64-.02.57-.25.79-.91,1.65-1.45,1.86Z"/>
      <path class="st2" d="M57.01,10.6c-.5-.95-1.18-1.66-2.05-1.95-2.64-.71-5.84,2.26.16.54.45.7,1.31,1.35,1.89,1.41h0Z"/>
      <path class="st4" d="M50.07,24.52c-1.48,1.36-4.96.69-5.45.02-2.2,1.07-4.22-.66-5.5-3.21.26-.64.26-1.43,0-2.38,1.37,2.43,3.24,3.81,5.61,4.14,1.1,1.64,3.76,1.52,5.18.02,2.86,1.39,7.42-2.65,6.81-4.38.67,1.28,1.99.79,1.89-2.28.16,3.48-.87,6.62-3.31,5.87-.38,1.91-3.91,2.93-5.23,2.19h0Z"/>
      <path class="st1" d="M40.34,17.48c.96.51,2.07.83,3.27,1,.17,1.54,1.72,1.52,1.93.13,1.77.01,3.62-.26,5.35-.73.86,1.96,2.25,1.08,1.74-.55,1.22-.45,2.34-1,3.26-1.6.09,3.93.01,3.99-2.93,5.39-.78-1.1-2.34-1.25-2.12.57-1.01.02-3.64.5-4.65.52.04-1.29-1.17-1.84-1.65-.38-2.4-.56-3.68-1.71-4.2-4.35h0Z"/>
      <path class="st4" d="M46.76,15.13c.3.95-4.98,2.59-6.22,1.81-1.98-1.62,2.11-8.72,6.22-1.81Z"/>
      <path class="st4" d="M48.88,14.72c-.03,1.05,6.07,1.29,6.68-.26,1.56-3.37-6.42-6.09-6.68.26Z"/>
      <path class="st4" d="M48.3,17.09c1.31.44,1.61-.89-.36-1.86-1.47,1.69-.57,2.69.36,1.86Z"/>
      <path class="st1" d="M47.99,15.46c2.13,1.36,1.22,1.98.24,1.39-.73,1.12-1.69.3-.24-1.39Z"/>
      <path class="st4" d="M41.3,11.01c1.05-.08,2.11.08,3.18.5.93-2.09,4.18-2.12,5.64-1.14.43-.81,1.36-1.35,2.24-1.49-1.54-.79-2.56-.22-3.27.44-1.15-.75-2.8-.79-4.15-.15-.65-.15-2.01-.09-2.35.14.38.51-.1,1.39-1.27,1.69h-.01Z"/>
      <path class="st4" d="M39.49,11.75c.05-.05.13-.04.18,0,.05.05.04.13-.01.17-.63.55-.9,1.93-.83,3.58.05,1.26.29,2.66.72,3.96,1.73,1.91,1.04,2.47,1.83,3.28.7.72,1.54,1.16,2.5,1.11.07,0,.13.05.13.12s-.05.12-.12.13c-1.05.05-1.95-.41-2.7-1.19-.81-.84-1.45-2.05-1.88-3.37-.44-1.32-.69-2.74-.73-4.02-.06-1.71.23-3.18.92-3.77h0Z"/>
      <path class="st4" d="M53.7,9.23c-.07,0-.12-.06-.11-.13,0-.06.07-.12.14-.11.49.05.98.48,1.42,1.17.52.83.91,1.82,1.32,3.14.07.22.47.56.51.78.07.33-.21.76-.16,1.1.2,1.29.27,2.59.14,3.74-.16,1.42-.64,2.58-1.54,3.11-.06.03-.14.02-.17-.04-.03-.06-.02-.13.05-.17.82-.48,1.26-1.57,1.42-2.93.16-1.41.01-3.09-.33-4.66-.34-1.56-.86-3.01-1.46-3.95-.4-.62-.82-1.01-1.22-1.05h0Z"/>
      <path class="st2" d="M46.83,9.95c.74.05-.03,1.2-2.11,1.75.38-1.19,1.36-1.8,2.11-1.75Z"/>
      <g>
        <path class="st1" d="M40.55,15.97c.41-3.91,5.09-2.84,5.5-1.25s-.7,1.6-2.52,1.33c-.89-.13-2.55,1.19-2.97-.08h0Z"/>
        <path class="st1" d="M55.39,13.87c-1.43-3.67-5.66-1.4-5.63.24.03,1.64,1.36,1.42,3.04.68.82-.36,2.51.43,2.59-.92h0Z"/>
        <path class="st5" d="M43.52,14.72c.16-.15.42-.16.58-.02s.16.39,0,.54c-.16.15-.42.16-.58.02s-.16-.39,0-.54Z"/>
        <path class="st5" d="M51.64,13.63c.16-.15.42-.16.58-.02s.16.39,0,.54-.42.16-.58.02-.16-.39,0-.54Z"/>
      </g>
    </g>
    <g>
      <path class="st0" d="M47.57,4.63c1.46-.2,2.81.58,3.33,1.79.21-.13.45-.22.72-.26.9-.12,1.72.43,1.89,1.24,1.07-.06,1.92.21,1.98.66.07.51-.9,1.07-2.16,1.24-.4.05-.79.06-1.12.03-.05.71-.77,1.33-1.41,1.42s-1.33.27-1.67-.03c-.47,1.18-2.25,1.04-2.88.65.05.64-.43,1.19-1.12,1.31-1.05.17-1.95-.22-2.19-1.61-1.15.15-3.03-.05-3.1-.55s.82-1.03,1.98-1.18c.13-.02.26-.03.38-.03-.09-.16-.15-.34-.18-.54-.12-.9.57-1.73,1.53-1.86.48-.06.94.06,1.3.31.18-1.3,1.28-2.39,2.73-2.59h0Z"/>
      <g>
        <path class="st3" d="M42.95,9.7c.31,0,.94-.26,1.23-.65-2.72-6.98-6.78-3.46-4.76-1.07.38-.17.64-.33.75-.48-.95-1.18.34-2.22,1.37-.75,1.03,1.46,1.42,2.93,1.42,2.95h0Z"/>
        <path class="st4" d="M42.95,9.7c.31,0,1-.16,1.29-.54-.06-.17-.31-.93-.55-1.21-.03.19-.38.7-1.04.89.11.31.29.86.29.86h0ZM43.22,7.07c-.21-.39-.59-.9-.86-1.14-.49-.15-.62.27-.66,1.05.14.23.44.72.55.94.19-.44.47-.78.97-.85h0ZM41.17,5.09c-.81-.31-1.53-.08-1.93.43.78-.15,1.04.18,1.23.51.2,0,.43.08.66.27-.29-.5-.33-.9.04-1.21h0ZM38.87,6.55c.3-.37.68-.33,1.03-.17-.04.09-.05.35-.05.47-.32.08-.57.17-.74.67-.22-.33-.29-.78-.24-.97h0Z"/>
        <path class="st2" d="M38.87,6.54c.2-.1.4-.19.59-.28-.21-.01-.41.06-.59.28h0ZM40.36,5.86c.19-.09.37-.16.54-.23,0-.2.08-.38.27-.54-.81-.31-1.53-.08-1.93.43.64-.12.93.08,1.12.34h0ZM41.95,6c.36.3.71.52,1.03.68-.2-.29-.43-.57-.61-.73-.18-.05-.31-.03-.41.06h0Z"/>
      </g>
      <g>
        <path class="st3" d="M50.52,6.51c.2.61,1.6.65,1.86.36.08-1.02-.31-2.05-.62-1.99-.3.06-.71.61-1.24,1.63Z"/>
        <path class="st4" d="M50.52,6.51c.15.69,1.64.72,1.86.36.08-.3.03-.77-.06-1-.48.14-.89.2-1.35-.18-.14.23-.41.54-.46.82h0Z"/>
        <path class="st2" d="M50.52,6.51c.15.69,1.64.72,1.86.36.03-.12.04-.26.04-.41-.45-.25-1.07-.28-1.86-.1-.02.05-.03.1-.05.15h0Z"/>
        <path class="st3" d="M51.9,6.34c-.11.12-.14.27-.06.33.08.07.24.03.35-.09.11-.12.14-.27.06-.33s-.24-.03-.35.09Z"/>
      </g>
      <g>
        <path class="st3" d="M48.72,9.39c-.03.64-1.37,1.05-1.71.84-.34-.96-.23-2.05.08-2.08.3-.02.84.4,1.63,1.24Z"/>
        <path class="st4" d="M48.72,9.39c.03.71-1.39,1.12-1.71.84-.16-.27-.23-.73-.2-.98.5.01.91-.04,1.25-.52.2.18.54.41.66.66h0Z"/>
        <path class="st2" d="M48.72,9.39c.03.71-1.39,1.12-1.71.84-.06-.1-.11-.24-.15-.38.37-.36.96-.55,1.77-.59.03.04.06.09.08.13Z"/>
        <path class="st3" d="M47.35,9.59c.14.08.2.22.15.31s-.22.09-.36,0c-.14-.08-.2-.22-.15-.31s.22-.09.36,0Z"/>
      </g>
      <g>
        <path class="st3" d="M48.35,6.11c-.28.15-.96.21-1.42,0-1.08-7.5,4.31-6.26,3.71-3.19-.43.03-.73,0-.91-.08.26-1.5-1.41-1.82-1.6-.03s.21,3.27.22,3.3h0Z"/>
        <path class="st4" d="M48.35,6.11c-.28.15-.97.33-1.43.12-.02-.18-.19-.98-.12-1.33.12.15.69.45,1.37.3.06.33.17.9.17.91h0ZM46.79,3.89c0-.45.07-1.08.2-1.42.36-.36.69-.05,1.11.62-.01.27-.03.84-.02,1.09-.39-.31-.81-.48-1.29-.3h0ZM47.63,1.16c.49.1.65.48.64,1.06.11-.28.27-.46.45-.55,0-.38.08-.8.84-1.03-.62-.26-1.37-.14-1.93.52h0ZM50.42,1.39c.14.15.3.58.27.98-.4-.36-.66-.33-1-.25-.06-.1-.19-.33-.28-.4.23-.31.55-.52,1-.33h0Z"/>
        <path class="st2" d="M47.63,1.16c.19.08.34.17.45.27.37-.4.75-.69,1.12-.9-.68-.12-1.2.08-1.58.62h0ZM46.99,2.48c-.17.41-.23.8-.19,1.19.38-.18.61-.61.68-1.29-.15-.1-.31-.06-.5.1h0Z"/>
      </g>
      <g>
        <ellipse class="st8" cx="50.36" cy="7.49" rx="1.39" ry="1.29" transform="translate(-.55 6.75) rotate(-7.63)"/>
        <ellipse class="st9" cx="50.36" cy="7.49" rx=".93" ry=".86" transform="translate(-.55 6.75) rotate(-7.63)"/>
        <ellipse class="st7" cx="50.37" cy="7.49" rx=".76" ry=".71" transform="translate(-.55 6.75) rotate(-7.63)"/>
        <path class="st3" d="M49.71,8.13c.2-.03.34-.2.31-.38s-.2-.31-.4-.29-.34.2-.31.38.2.31.4.29Z"/>
      </g>
      <g>
        <ellipse class="st8" cx="45.39" cy="6.18" rx="1.96" ry="1.83" transform="translate(-.42 6.08) rotate(-7.63)"/>
        <ellipse class="st9" cx="45.39" cy="6.18" rx="1.31" ry="1.22" transform="translate(-.42 6.08) rotate(-7.63)"/>
        <ellipse class="st7" cx="45.39" cy="6.18" rx="1.07" ry="1" transform="translate(-.42 6.08) rotate(-7.63)"/>
        <ellipse class="st8" cx="44.42" cy="6.61" rx=".51" ry=".48" transform="translate(-.48 5.96) rotate(-7.63)"/>
      </g>
    </g>
  </g>
</svg>